<svg id="OBJECTS" xmlns="http://www.w3.org/2000/svg" viewBox="0 0 500 500"><style>.st1{fill:#fff9ff}.st3{fill:#bcbace}</style><ellipse cx="291.77" cy="232.4" rx="26.85" ry="11.02" opacity=".5" fill="#647ddd"/><path class="st1" d="M306.34 188.9l-24.79 8.33v31.19c0 6.31 8.4 11.43 18.77 11.43s18.77-5.12 18.77-11.43v-31.19l-12.75-8.33z"/><ellipse class="st1" cx="300.32" cy="197.22" rx="18.77" ry="11.43"/><path d="M284.34 203.22c3.31 3.26 9.22 5.44 15.98 5.44 6.75 0 12.67-2.17 15.98-5.44.23-.66.35-1.35.35-2.05 0-5.49-7.31-9.95-16.33-9.95s-16.33 4.45-16.33 9.95c0 .7.12 1.39.35 2.05z" fill="#a04a58"/><path class="st3" d="M300.32 187.1c9.46 0 17.45 4.63 17.45 10.12s-7.99 10.12-17.45 10.12c-9.46 0-17.45-4.63-17.45-10.12s7.99-10.12 17.45-10.12m0-1.31c-10.37 0-18.77 5.12-18.77 11.43s8.4 11.43 18.77 11.43 18.77-5.12 18.77-11.43-8.4-11.43-18.77-11.43z"/><g><path class="st1" d="M316.33 209.83l-.69-.4v.01l-.01-.01v.01l-.01-.01v.01l-.01-.01v.01l-.01-.01v.01l-.01-.01v.01l-.01-.01v.01l-.01-.01v.01l-.01-.01v.01l-.01-.01v.01l-.01-.01v.01l-.01-.01v.01l-.01-.01v.01l-.01-.01v.01l-.01-.01v.01l-.01-.01v.01l-.01-.01v.01l-.01-.01v.01l-.01-.01v.01l-.01-.01v.01l-.01-.01v.01l-.01-.01v.01l-.01-.01v.01l-.01-.01v.01l-.01-.01v.01l-.01-.01v.01l-.01-.01v.01l-.01-.01v.01l-.01-.01v.01l-.01-.01v.01l-.01-.01v.01l-.01-.01v.01l-.01-.01v.01l-.01-.01v.01l-.01-.01v.01l-.01-.01v.01l-.01-.01v.01l-.01-.01v.01l-.01-.01v.01l-.01-.01v.01l-.01-.01v.01l-.01-.01v.01l-.01-.01v.01l-.01-.01v.01l-.01-.01v.01l-.01-.01v.01l-.01-.01v.01l-.01-.01v.01l-.01-.01v.01l-.01-.01v.01l-.01-.01v.01l-.01-.01v.01l-.01-.01v.01l-.01-.01v.01l-.01-.01v.01l-.01-.01v.01l-.01-.01v.01l-.01-.01v.01l-.01-.01v.01l-.01-.01v.01l-.05.36v.01l-.01-.01v.01l-.01-.01v.01l-.01-.01v.01l-.01-.01v.01l-.01-.01v.01l-.01-.01v.01l-.01-.01v.01l-.01-.01v.01l-.01-.01v.01l-.01-.01v.01l-.01-.01v.01l-.01-.01v.01l-.01-.01v.01l-.01-.01v.01l-.01-.01v.01l-.01-.01v.01l-.01-.01v.01l-.01-.01v.01l-.01-.01v.01l-.01-.01v.01l-.01-.01v.01l-.01-.01v.01l-.01-.01v.01l-.01-.01v.01l-.01-.01v.01l-.01-.01v.01l-.01-.01v.01l-.01-.01v.01l-.01-.01v.01l-.01-.01v.01l-.01-.01v.2l-.01-.01v.01l-.01-.01v.01l-.01-.01v.01l-.01-.01v.01l-.01-.01v.01l-.01-.01v.01l-.01-.01v.01l-.01-.01v.01l-.01-.01v.01l-.01-.01v.01l-.01-.01v.01l-.01-.01v.01l-.01-.01v.01l-.01-.01v.01l-.01-.01v.01l-.01-.01v.01l-.01-.01v.01l-.01-.01v.01l-.01-.01v.01l-.01-.01v.01l-.01-.01v.01l-.01-.01v.01l-.01-.01v.01l-.01-.01v.01l-.01-.01v.01l-.01-.01v.01l-.01-.01v.01l-.01-.01v.01l-.01-.01v.01l-.01-.01v.01l-.01-.01v.01l-.01-.01v.01l-.01-.01v.01l-.01-.01v.01l-.01-.01v.01l-.01-.01v.01l-.01-.01v.01l-.01-.01v.01l-.01-.01v.01l-.01-.01v.01l-.01-.01v.01l-.01-.01v.01l-.01-.01v.01l-.01-.01v.01l-.01-.01v.01l-.01-.01v.01l-.01-.01v.01l-.01-.01v.01l-.01-.01v.01l-.01-.01v.01l-.01-.01v.01l-.01-.01v.01l-.01-.01v.01l-.01-.01v.01l-.01-.01v.01l-.01-.01v.01l-.01-.01v.01l-.01-.01v.01l-.01-.01v.01l-.01-.01v.01l-.01-.01v.01l-.01-.01v.01l-.01-.01v.01l-.01-.01v.01l-.01-.01v.01l-.01-.01v.01l-.01-.01v.01l-.01-.01v.01l-.01-.01v.01l-.01-.01v.01l-.01-.01v.01l-.01-.01v.01l-.01-.01v.01l-.01-.01v.01l-.01-.01v.01l-.01-.01v.01l-.01-.01v.01l-.01-.01v.01l-.01-.01v.01l-.01-.01v.01l-.01-.01v.01l-.01-.01v.01l-.01-.01v.01l-.01-.01v.01l-.01-.01v.01l-.01-.01v.01l-.01-.01v.01l-.01-.01v.01l-.01-.01v.01l-.01-.01v.01l-.01-.01v.01l-.01-.01v.01l-.01-.01v.01l-.01-.01v.01l-.01-.01v.01l-.01-.01v.01l-.01-.01v.01l-.01-.01v.01l-.01-.01v.01l-.01-.01v.01l-.01-.01v.01l-.01-.01v.01l-.01-.01v.01l-.01-.01v.01l-.01-.01v.01l-.01-.01v.01l-.01-.01v.01l-.01-.01v.01l-.01-.01v.01l-.01-.01v.01l-.01-.01v.01l-.01-.01v.01l-.01-.01v.01l-.01-.01v.01l-.01-.01v.01l-.01-.01v.01l-.01-.01v.01l-.01-.01v.01l-.01-.01v.01l-.01-.01v.01l-.01-.01v.01l-.01-.01v.01l-.01-.01v.01l-.01-.01v.01l-.01-.01v.01l-.01-.01v.01l-.01-.01v.01l-.01-.01v.01l-.01-.01v.01l-.01-.01v.01l-.01-.01v.01l-.01-.01v.01l-.01-.01v.01l-.01-.01v.01l-.01-.01v.01l-.01-.01v.01l-.01-.01v.01l-.01-.01v.01l-.01-.01v.01l-.01-.01v.01l-.01-.01v.01l-.01-.01v.01l-.01-.01v.01l-.01-.01v.01l-.01-.01v.01l-.01-.01v.01l-.01-.01v.01l-.01-.01v.01l-.01-.01v.01l-.01-.01v.01l-.01-.01v.01l-.01-.01v.01l-.01-.01v.01l-.01-.01v.01l-.01-.01v.01l-.01-.01v.01l-.01-.01v.01l-.01-.01v.01l-.01-.01v.01l-.01-.01v.01l-.01-.01v.01l-.01-.01v.01l-.01-.01v.01l-.01-.01v.01l-.01-.01v.01l-.01-.01V211l-.01-.01v.01l-.01-.01v.01l-.01-.01v.01l-.01-.01v.01l-.01-.01v.01l-.01-.01v.01l-.01-.01v.01l-.01-.01v.01l-.01-.01v.01l-.01-.01v.01l-.01-.01v.01l-.01-.01v.01l-.01-.01v.01l-.01-.01v.01l-.01-.01v.01l-.01-.01v.01l-.01-.01v.01l-.01-.01v.01l-.01-.01v.01l-.01-.01v.01l-.01-.01v.01l-.01-.01v.01l-.01-.01v.01l-.01-.01v.01l-.01-.01v.01l-.01-.01v.01l-.01-.01v.01l-.01-.01v.01l-.01-.01v.01l-.01-.01v.01l-.01-.01v.01l-.01-.01v.01l-.01-.01v.01l-.01-.01v.01l-.01-.01v.01l-.01-.01v.01l-.01-.01v.01l-.01-.01v.01l-.01-.01v.01l-.01-.01v.01l-.01-.01v.01l-.01-.01v.01l-.01-.01v.01l-.01-.01v3.17c3.18 2.14 5.13 5.76 5.13 9.63 0 1.23-.42 2.37-1.17 3.27-.24.03-.48.05-.71.05v.01h-.01v.01h-.01v.01h-.01v.01h-.01v.01h-.01v.01h-.01v.01h-.01v.01h-.01v.01h-.01v.01h-.01v.01h-.01v.01h-.01v.01h-.01v.01h-.01v.01h-.01v.01h-.01v.01h-.01v.01h-.01v.01h-.01v.01h-.01v.01h-.01v.01h-.01v.01h-.01v.01h-.01v.01h-.01v.01h-.01v.01h-.01v.01h-.01v.01h-.01v.01h-.01v.01h-.01v.01h-.01v.01h-.01v.01h-.01v.01h-.01v.01h-.01v.01h-.01v.01h-.01v.01h-.01v.01h-.01v.01h-.01v.01h-.01v.01h-.01v.01h-.01v.01h-.01v.01h-.01v.01h-.01v.01h-.01v.01h-.01v.01h-.01v.01h-.01v.01h-.01v.01h-.01v.01h-.01v.01h-.01v.01h-.01v.01h-.01v.01h-.01v.01h-.01v.01h-.01v.01h-.01v.01h-.01v.01h-.01v.01h-.01v.01h-.01v.01h-.01v.01h-.01v.01h-.01v.01h-.01v.01h-.01v.01h-.01v.01h-.01v.01h-.01v.01h-.01v.01h-.01v.01h-.01v.01h-.01v.01h-.01v.01h-.01v.01h-.01v.01h-.01v.01h-.01v.01h-.01v.01H315v.01h-.01v.01h-.01v.01h-.01v.01h-.01v.01h-.01v.01h-.01v.01h-.01v.01h-.01v.01h-.01v.01h-.01v.01h-.01v.01h-.01v.01h-.01v.01h-.01v.01h-.01v.01h-.01v.01h-.01v.01h-.01V228h-.01v.01h-.01v.01h-.01v.01h-.01v.01h-.01v.01h-.01v.01h-.01v.01h-.01v.01h-.01v.01h-.01v.01h-.01v.01h-.01v.01h-.01v.01h-.01v.01h-.01v.01h-.01v.01h-.01v.01h-.01v.01h-.01v.01h-.01v.01h-.01v.01h-.01v.01h-.01v.01h-.01v.01h-.01v.01h-.01v.01h-.01v.01h-.01v.01h-.01v.01h-.01v.01h-.01v.01h-.01v.01h-.01v.01h-.01v.01h-.01v.01h-.01v.01h-.01v.01h-.01v.01h-.01v.01h-.01v.01h-.01v.01h-.01v.01h-.01v.01h-.01v.01h-.01v.01h-.01v.01h-.01v.01h-.01v.01h-.01v.01h-.01v.01h-.01v.01h-.01v.01h-.01v.01h-.01v.01h-.01v.01h-.01v.01h-.01v.01h-.01v.01h-.01v.01h-.01v.01h-.01v.01h-.01v.01h-.01v.01h-.01v.01h-.01v.01h-.01v.01h-.01v.01h-.01v.01h-.01v.01h-.01v.01h-.01v.01h-.01v.01h-.01v.01h-.01v.01h-.01v.01h-.01v.01h-.01v.01h-.01v.01h-.01v.01h-.01v.01h-.01v.01H314v.01h-.01v.01h-.01v.01h-.01v.01h-.01v.01h-.01v.01h-.01v.01h-.01v.01h-.01v.01h-.01v.01h-.01v.01h-.01v.01h-.01v.01h-.01v.01h-.01v.01h-.01v.01h-.01v.01h-.01v.01h-.01v.01h-.01v.01h-.01v.01h-.01v.01h-.01v.01h-.01v.01h-.01v.01h-.01v.01h-.01v.01h-.01v.01h-.01v.01h-.01v.01h-.01v.01h-.01v.01h-.01v.01h-.01v.01h-.01v.01h-.01v.01h-.01v.01h-.01v.01h-.01v.01h-.01v.01h-.01v.01h-.01v.01h-.01v.01h-.01v.01h-.01v.01h-.01v.01h-.01v.01h-.01v.01h-.01v.01h-.01v.01h-.01v.01h-.01v.01h-.01v.01h-.01v.01h-.01v.01h-.01v.01h-.01v.01h-.01v.01h-.01v.01h-.01v.01h-.01v.01h-.01v.01h-.01v.01h-.01v.01h-.01v.01h-.01v.01h-.01v.01h-.01v.01h-.01v.01h-.01v.01h-.01v.01h-.01v.01h-.01v.01h-.01v.01h-.01v.01h-.01v.01h-.01v.01h-.01v.01h-.01v.01h-.01v.01h-.01v.01h-.01v.01h-.01v.01h-.01V229h-.01-.01v.01h-.01v.01h-.01v.01h-.01v.01h-.01v.01h-.01v.01h-.01v.01h-.01v.01h-.01v.01h-.01v.01h-.01v.01h-.01v.01h-.01v.01h-.01v.01h-.01v.01H313v.01h-.01v.01h-.01v.01h-.01v.01h-.01v.01h-.01v.01h-.01v.01h-.01v.01h-.01v.01h-.01v.01h-.01v.01h-.01v.01h-.01v.01h-.01v.01h-.01v.01h-.01v.01h-.01v.01h-.01v2.72c1.35 0 2.7-.36 3.93-1.07H319.77c2.46-1.42 3.92-3.96 3.92-6.8-.19-7.04-2.94-11.79-7.36-14.34z"/><path class="st3" d="M313.09 211.65l-.69-.4v3.17c3.18 2.14 5.13 5.76 5.13 9.63 0 1.85-.96 3.52-2.56 4.44-.8.46-1.68.7-2.57.7v2.72c1.35 0 2.7-.36 3.93-1.07 2.46-1.42 3.92-3.96 3.92-6.8 0-5.09-2.74-9.84-7.16-12.39z"/></g></svg>