<svg xmlns="http://www.w3.org/2000/svg" viewBox="0 0 500 500"><ellipse cx="84.39" cy="296.44" rx="30.36" ry="12.45" opacity=".5" fill="#647ddd"/><path d="M100.64 255.78l-24.76 8.31v31.15c0 6.31 8.39 11.42 18.74 11.42 10.35 0 18.74-5.11 18.74-11.42V264.1l-12.72-8.32z" fill="#fff9ff"/><ellipse cx="94.63" cy="264.1" rx="18.74" ry="11.42" fill="#d3bae7"/><path d="M78.68 270.09c3.3 3.26 9.21 5.43 15.96 5.43 6.74 0 12.66-2.17 15.96-5.43.23-.66.35-1.35.35-2.05 0-5.49-7.3-9.93-16.31-9.93-9.01 0-16.31 4.45-16.31 9.93 0 .7.12 1.39.35 2.05z" fill="#752939"/><path d="M94.63 253.99c9.45 0 17.43 4.63 17.43 10.11 0 5.48-7.98 10.11-17.43 10.11S77.2 269.58 77.2 264.1c0-5.48 7.98-10.11 17.43-10.11m0-1.31c-10.35 0-18.74 5.11-18.74 11.42s8.39 11.42 18.74 11.42 18.74-5.11 18.74-11.42-8.39-11.42-18.74-11.42z" fill="#bcbace"/><path d="M110.56 211.49c-1.57 3.33-1.59 7.16-1.58 10.84l.03 12.42c.01 4.71.01 9.5-1.27 14.04-1.28 4.54-4.04 8.87-8.27 10.97-2.09 1.04-4.72 1.44-6.7.2-.88-.55-1.55-1.37-2.1-2.25-4.76-7.46-.36-17.48 3.06-24.64 3.97-8.3 9.72-15.74 16.83-21.58z" fill="#1a685a"/><path d="M74.98 245.54c-1.18-15.46-.38-31.22-4.17-46.26 10.33 12.57 15.37 29.36 13.66 45.54 3.42-10.69 6.89-21.6 6.82-32.82-.03-5.37 3.27-18.03 3.27-18.03s1.94 12.12 3.73 18c1.22 4.02 1.47 8.26 1.71 12.45l1.05 18.35c5.09-15.38 18.71-36.58 18.71-36.58s-5.02 40.42-7.67 49.66C109.06 266.35 99.25 273.48 88 271c-10.23-2.26-12.38-16.97-13.02-25.46z" fill="#409682"/><path d="M82.96 260.78c-2.14-5.88-.15-12.34 1.18-18.45 1.59-7.29 2.22-14.91.6-22.19a332.432 332.432 0 0 1 14.18 34.93c1.05 3.08 2.06 6.42 1.06 9.52-.94 2.92-6.21 8.07-9.71 7.21-2.74-.69-6.37-8.44-7.31-11.02z" fill="#4eaf9d"/></svg>