<svg id="OBJECTS" xmlns="http://www.w3.org/2000/svg" viewBox="0 0 500 500"><style>.st1{fill:#57438e}.st2{fill:#381e60}.st4{fill:#806cbe}.st5{enable-background:new}.st6{fill:#8e90ff}.st7{fill:#87ceff}</style><path d="M219.46 349.59l-125.21-54.7 125.97-69.36s130.29 55.9 120.67 58.49c-9.61 2.59-121.43 65.57-121.43 65.57z" opacity=".5" fill="#647ddd"/><path class="st1" d="M132.33 185.51l108.53-62.17c1.95-1.12 4.48-1.65 6.67-1.15 3.08.71 5.96 1.68 5.95 4.37l.16 100.88-9.55 5.64c3.12 1.52 98.39 47.89 98.55 48.01l.23 3.89c0 1.68-.89 3.23-2.34 4.07-16.22 9.39-111.21 64.31-111.21 64.31a10.072 10.072 0 0 1-10.1 0l-90.29-52.19a3.045 3.045 0 0 1-1.52-2.64l-.16-104.29c.01-3.61 1.94-6.94 5.08-8.73z"/><path class="st2" d="M130.45 298.19l123.29-70.35.26-100.66c.01-2.91-3.13-4.73-5.66-3.29l-113.7 65.13a7.953 7.953 0 0 0-4.01 6.9l-.18 102.27z"/><path class="st2" d="M248.92 129.74l-112.87 64.79-.24 94.76 113.11-64.93z"/><path d="M130.52 298.18l123.23-71.07 87.15 50.37c2.52 1.45 2.52 5.09 0 6.54l-113.45 65.56a7.958 7.958 0 0 1-7.98 0l-88.95-51.4z" fill="#fff9ff"/><path class="st1" d="M164.62 300.37c-2.45 1.41-3.68 2.11-6.14 3.52-2.48-1.4-3.72-2.1-6.2-3.51 2.45-1.41 3.68-2.11 6.14-3.52 2.48 1.4 3.72 2.1 6.2 3.51zM173.68 295.17c-2.45 1.41-3.68 2.11-6.14 3.52-2.48-1.4-3.72-2.1-6.2-3.51 2.45-1.41 3.68-2.11 6.14-3.52 2.48 1.4 3.72 2.1 6.2 3.51zM182.74 289.97c-2.45 1.41-3.68 2.11-6.14 3.52-2.48-1.4-3.72-2.1-6.2-3.51 2.45-1.41 3.68-2.11 6.14-3.52 2.47 1.4 3.71 2.1 6.2 3.51zM191.79 284.76c-2.45 1.41-3.68 2.11-6.14 3.52-2.48-1.4-3.72-2.1-6.2-3.51 2.45-1.41 3.68-2.11 6.14-3.52 2.48 1.41 3.72 2.11 6.2 3.51zM200.85 279.56c-2.45 1.41-3.68 2.11-6.14 3.52-2.48-1.4-3.72-2.1-6.2-3.51 2.45-1.41 3.68-2.11 6.14-3.52 2.48 1.41 3.72 2.11 6.2 3.51zM209.91 274.36c-2.45 1.41-3.68 2.11-6.14 3.52-2.48-1.4-3.72-2.1-6.2-3.51 2.45-1.41 3.68-2.11 6.14-3.52 2.47 1.41 3.72 2.11 6.2 3.51zM218.96 269.16c-2.45 1.41-3.68 2.11-6.14 3.52-2.48-1.4-3.72-2.1-6.2-3.51 2.45-1.41 3.68-2.11 6.14-3.52 2.48 1.41 3.72 2.11 6.2 3.51zM228.02 263.96c-2.45 1.41-3.68 2.11-6.14 3.52-2.48-1.4-3.72-2.1-6.2-3.51 2.45-1.41 3.68-2.11 6.14-3.52 2.48 1.41 3.72 2.11 6.2 3.51zM237.08 258.76c-2.45 1.41-3.68 2.11-6.14 3.52-2.48-1.4-3.72-2.1-6.2-3.51 2.45-1.41 3.68-2.11 6.14-3.52 2.48 1.41 3.72 2.11 6.2 3.51zM246.13 253.56c-2.45 1.41-3.68 2.11-6.14 3.52-2.48-1.4-3.72-2.1-6.2-3.51 2.45-1.41 3.68-2.11 6.14-3.52 2.48 1.41 3.72 2.11 6.2 3.51zM255.19 248.36c-2.45 1.41-3.68 2.11-6.14 3.52-2.48-1.4-3.72-2.1-6.2-3.51 2.45-1.41 3.68-2.11 6.14-3.52 2.48 1.41 3.72 2.11 6.2 3.51zM264.25 243.16c-2.45 1.41-3.68 2.11-6.14 3.52-2.48-1.4-3.72-2.1-6.2-3.51 2.45-1.41 3.68-2.11 6.14-3.52 2.47 1.4 3.72 2.11 6.2 3.51zM173.33 305.29c-2.45 1.41-3.68 2.11-6.14 3.52-2.48-1.4-3.72-2.1-6.2-3.51 2.45-1.41 3.68-2.11 6.14-3.52 2.48 1.4 3.72 2.11 6.2 3.51zM182.39 300.09c-2.45 1.41-3.68 2.11-6.14 3.52-2.48-1.4-3.72-2.1-6.2-3.51 2.45-1.41 3.68-2.11 6.14-3.52 2.47 1.4 3.71 2.1 6.2 3.51zM191.44 294.89c-2.45 1.41-3.68 2.11-6.14 3.52-2.48-1.4-3.72-2.1-6.2-3.51 2.45-1.41 3.68-2.11 6.14-3.52 2.48 1.4 3.72 2.1 6.2 3.51zM200.5 289.69c-2.45 1.41-3.68 2.11-6.14 3.52-2.48-1.4-3.72-2.1-6.2-3.51 2.45-1.41 3.68-2.11 6.14-3.52 2.48 1.4 3.72 2.1 6.2 3.51zM209.56 284.49c-2.45 1.41-3.68 2.11-6.14 3.52-2.48-1.4-3.72-2.1-6.2-3.51 2.45-1.41 3.68-2.11 6.14-3.52 2.47 1.4 3.71 2.1 6.2 3.51zM218.61 279.28c-2.45 1.41-3.68 2.11-6.14 3.52-2.48-1.4-3.72-2.1-6.2-3.51 2.45-1.41 3.68-2.11 6.14-3.52 2.48 1.41 3.72 2.11 6.2 3.51zM227.67 274.08c-2.45 1.41-3.68 2.11-6.14 3.52-2.48-1.4-3.72-2.1-6.2-3.51 2.45-1.41 3.68-2.11 6.14-3.52 2.48 1.41 3.72 2.11 6.2 3.51zM236.73 268.88c-2.45 1.41-3.68 2.11-6.14 3.52-2.48-1.4-3.72-2.1-6.2-3.51 2.45-1.41 3.68-2.11 6.14-3.52 2.48 1.41 3.72 2.11 6.2 3.51zM245.78 263.68c-2.45 1.41-3.68 2.11-6.14 3.52-2.48-1.4-3.72-2.1-6.2-3.51 2.45-1.41 3.68-2.11 6.14-3.52 2.48 1.41 3.72 2.11 6.2 3.51zM254.84 258.48c-2.45 1.41-3.68 2.11-6.14 3.52-2.48-1.4-3.72-2.1-6.2-3.51 2.45-1.41 3.68-2.11 6.14-3.52 2.48 1.41 3.72 2.11 6.2 3.51zM263.9 253.28c-2.45 1.41-3.68 2.11-6.14 3.52-2.48-1.4-3.72-2.1-6.2-3.51 2.45-1.41 3.68-2.11 6.14-3.52 2.48 1.41 3.72 2.11 6.2 3.51z"/><path class="st1" d="M272.95 248.08c-4.11 2.36-6.17 3.54-10.29 5.91-2.48-1.4-3.72-2.1-6.2-3.51 4.11-2.36 6.17-3.54 10.29-5.91 2.48 1.41 3.72 2.11 6.2 3.51zM186.09 307.88c-4.08 2.34-6.11 3.51-10.19 5.85-2.48-1.4-3.72-2.1-6.2-3.51 4.08-2.34 6.11-3.51 10.19-5.85 2.48 1.41 3.72 2.11 6.2 3.51z"/><path class="st1" d="M191.09 305.01c-2.45 1.41-3.68 2.11-6.14 3.52-2.48-1.4-3.72-2.1-6.2-3.51 2.45-1.41 3.68-2.11 6.14-3.52 2.48 1.41 3.72 2.11 6.2 3.51zM200.15 299.81c-2.45 1.41-3.68 2.11-6.14 3.52-2.48-1.4-3.72-2.1-6.2-3.51 2.45-1.41 3.68-2.11 6.14-3.52 2.48 1.4 3.72 2.11 6.2 3.51zM209.21 294.61c-2.45 1.41-3.68 2.11-6.14 3.52-2.48-1.4-3.72-2.1-6.2-3.51 2.45-1.41 3.68-2.11 6.14-3.52 2.47 1.4 3.72 2.11 6.2 3.51zM218.26 289.41c-2.45 1.41-3.68 2.11-6.14 3.52-2.48-1.4-3.72-2.1-6.2-3.51 2.45-1.41 3.68-2.11 6.14-3.52 2.48 1.4 3.72 2.1 6.2 3.51zM227.32 284.21c-2.45 1.41-3.68 2.11-6.14 3.52-2.48-1.4-3.72-2.1-6.2-3.51 2.45-1.41 3.68-2.11 6.14-3.52 2.48 1.4 3.72 2.1 6.2 3.51zM236.38 279.01c-2.45 1.41-3.68 2.11-6.14 3.52-2.48-1.4-3.72-2.1-6.2-3.51 2.45-1.41 3.68-2.11 6.14-3.52 2.48 1.4 3.72 2.1 6.2 3.51zM245.43 273.8c-2.45 1.41-3.68 2.11-6.14 3.52-2.48-1.4-3.72-2.1-6.2-3.51 2.45-1.41 3.68-2.11 6.14-3.52 2.48 1.41 3.72 2.11 6.2 3.51zM254.49 268.6c-2.45 1.41-3.68 2.11-6.14 3.52-2.48-1.4-3.72-2.1-6.2-3.51 2.45-1.41 3.68-2.11 6.14-3.52 2.48 1.41 3.72 2.11 6.2 3.51zM263.55 263.4c-2.45 1.41-3.68 2.11-6.14 3.52-2.48-1.4-3.72-2.1-6.2-3.51 2.45-1.41 3.68-2.11 6.14-3.52 2.48 1.41 3.72 2.11 6.2 3.51zM272.6 258.2c-2.45 1.41-3.68 2.11-6.14 3.52-2.48-1.4-3.72-2.1-6.2-3.51 2.45-1.41 3.68-2.11 6.14-3.52 2.48 1.41 3.72 2.11 6.2 3.51zM281.66 253c-2.45 1.41-3.68 2.11-6.14 3.52-2.48-1.4-3.72-2.1-6.2-3.51 2.45-1.41 3.68-2.11 6.14-3.52 2.48 1.41 3.72 2.11 6.2 3.51zM190.74 315.13c-2.45 1.41-3.68 2.11-6.14 3.52-2.48-1.4-3.72-2.1-6.2-3.51 2.45-1.41 3.68-2.11 6.14-3.52 2.48 1.41 3.72 2.11 6.2 3.51zM199.8 309.93c-2.45 1.41-3.68 2.11-6.14 3.52-2.48-1.4-3.72-2.1-6.2-3.51 2.45-1.41 3.68-2.11 6.14-3.52 2.48 1.41 3.72 2.11 6.2 3.51zM208.86 304.73c-2.45 1.41-3.68 2.11-6.14 3.52-2.48-1.4-3.72-2.1-6.2-3.51 2.45-1.41 3.68-2.11 6.14-3.52 2.47 1.41 3.72 2.11 6.2 3.51zM217.91 299.53c-2.45 1.41-3.68 2.11-6.14 3.52-2.48-1.4-3.72-2.1-6.2-3.51 2.45-1.41 3.68-2.11 6.14-3.52 2.48 1.41 3.72 2.11 6.2 3.51zM226.97 294.33c-2.45 1.41-3.68 2.11-6.14 3.52-2.48-1.4-3.72-2.1-6.2-3.51 2.45-1.41 3.68-2.11 6.14-3.52 2.48 1.41 3.72 2.11 6.2 3.51zM236.03 289.13c-2.45 1.41-3.68 2.11-6.14 3.52-2.48-1.4-3.72-2.1-6.2-3.51 2.45-1.41 3.68-2.11 6.14-3.52 2.48 1.4 3.72 2.11 6.2 3.51zM245.08 283.93c-2.45 1.41-3.68 2.11-6.14 3.52-2.48-1.4-3.72-2.1-6.2-3.51 2.45-1.41 3.68-2.11 6.14-3.52 2.48 1.4 3.72 2.1 6.2 3.51zM254.14 278.73c-2.45 1.41-3.68 2.11-6.14 3.52-2.48-1.4-3.72-2.1-6.2-3.51 2.45-1.41 3.68-2.11 6.14-3.52 2.48 1.4 3.72 2.1 6.2 3.51zM263.2 273.53c-2.45 1.41-3.68 2.11-6.14 3.52-2.48-1.4-3.72-2.1-6.2-3.51 2.45-1.41 3.68-2.11 6.14-3.52 2.48 1.4 3.72 2.1 6.2 3.51zM272.26 268.33c-2.45 1.41-3.68 2.11-6.14 3.52-2.48-1.4-3.72-2.1-6.2-3.51 2.45-1.41 3.68-2.11 6.14-3.52 2.47 1.4 3.71 2.1 6.2 3.51zM285.22 260.88c-4.02 2.31-6.03 3.46-10.05 5.77-2.48-1.4-3.72-2.1-6.2-3.51 4.02-2.31 6.03-3.46 10.05-5.77 2.48 1.4 3.72 2.11 6.2 3.51z"/><path class="st1" d="M290.37 257.92c-2.45 1.41-3.68 2.11-6.14 3.52-2.48-1.4-3.72-2.1-6.2-3.51 2.45-1.41 3.68-2.11 6.14-3.52 2.48 1.41 3.72 2.11 6.2 3.51zM200.65 320.73c-2.45 1.41-3.68 2.11-6.14 3.52-2.48-1.4-3.72-2.1-6.2-3.51 2.45-1.41 3.68-2.11 6.14-3.52 2.48 1.41 3.72 2.11 6.2 3.51zM209.71 315.53c-2.45 1.41-3.68 2.11-6.14 3.52-2.48-1.4-3.72-2.1-6.2-3.51 2.45-1.41 3.68-2.11 6.14-3.52 2.48 1.41 3.72 2.11 6.2 3.51zM218.77 310.33c-2.45 1.41-3.68 2.11-6.14 3.52-2.48-1.4-3.72-2.1-6.2-3.51 2.45-1.41 3.68-2.11 6.14-3.52 2.47 1.41 3.72 2.11 6.2 3.51zM273.11 279.13c-17.14 9.84-34.28 19.69-51.42 29.53-2.48-1.4-3.72-2.1-6.2-3.51 17.14-9.84 34.28-19.69 51.42-29.53 2.48 1.4 3.72 2.11 6.2 3.51zM282.17 273.93c-2.45 1.41-3.68 2.11-6.14 3.52-2.48-1.4-3.72-2.1-6.2-3.51 2.45-1.41 3.68-2.11 6.14-3.52 2.47 1.4 3.71 2.1 6.2 3.51zM291.22 268.73c-2.45 1.41-3.68 2.11-6.14 3.52-2.48-1.4-3.72-2.1-6.2-3.51 2.45-1.41 3.68-2.11 6.14-3.52 2.48 1.4 3.72 2.1 6.2 3.51zM300.28 263.53c-2.45 1.41-3.68 2.11-6.14 3.52-2.48-1.4-3.72-2.1-6.2-3.51 2.45-1.41 3.68-2.11 6.14-3.52 2.48 1.4 3.72 2.1 6.2 3.51zM231.09 311.18l42.29-24.41 24.16 14.88-42.27 24.43z"/><g><path class="st4" d="M231.41 191.19l7.34-4.24v.31l-7.22 4.16zM225.78 194.75l-.14-.23 2.85-1.65-.14.39zM234.76 197.42l4.01-2.32v.3l-3.88 2.24z"/><g class="st5"><path class="st6" d="M234.89 197.64l3.91 7.26-4.83 2.79-13.48 7.78 6.6-18.65 1.26-3.56.14-.39 1.52-4.28 1.4 2.6.12.23 3.23 6z"/><path class="st7" d="M225.78 194.75l1.31 2.07-6.6 18.65-4.93-1.86 2.35-6.17.15-.38 3.84-10.07.15-.4 1.84-4.83 1.75 2.76z"/><path class="st6" d="M210.54 211.7l5.02 1.91 4.93 1.86-7.23 4.18-12.63 7.29 8.24-12.87 1.43-2.23.12-.18z"/><path class="st4" d="M208.1 213.11l-.16-.21 10.12-5.84-.15.38-7.37 4.26-.12-.04-.12.18z"/><path class="st7" d="M208.1 213.11l.77.96-8.24 12.87-1.92-3.74 2.57-6.15.16-.4 3.27-7.84 3.23 4.09z"/><path class="st4" d="M196.86 219.6l-.11-.23 4.69-2.72-.16.4zM193.63 213.31l-.12-.24 28.54-16.48-.15.4z"/><path class="st6" d="M196.86 219.6l1.85 3.6 1.92 3.74-4.58 2.64-11.93 6.89 5.47-17.7 1.17-3.81.12-.37 1.28-4.15 1.35 2.63.12.24 3.12 6.06z"/><path class="st4" d="M188.2 216.45l-.14-.23 2.82-1.63-.12.37zM184.2 209.76l54.52-31.48v.31l-54.38 31.4zM238.7 170.13v.31L147 223.38l-.35.2v-.31l.35-.2z"/></g><path class="st4" d="M146.67 231.42l.35-.2 35.08-20.25-.16.4-34.92 20.16-.35.2zM174.57 224.31l-.17-.21 3.3-1.91-.15.4zM146.72 248.25l.35-.2 6.57-3.8-.2.41-6.37 3.68-.35.21z"/><g class="st5"><path class="st6" d="M174.57 224.31l1.54 1.96 8.01 10.2-15.51 8.96-12.51 7.22 5.39-13.24 4.01-9.86.17-.41 4.33-10.65 4.4 5.61z"/><path class="st7" d="M157.57 236.1l3.92 3.31-5.39 13.24-9 5.19 6.34-13.18.2-.41z"/><path class="st4" d="M146.7 240.1l.35-.21 18.62-10.75-.17.41-18.45 10.65-.35.2z"/></g><path class="st7" d="M188.2 216.45l1.39 2.32-5.47 17.7-8.01-10.2 1.44-3.68.15-.4 4.24-10.82.16-.4 1.12-2.86.98 1.65.14.23 3.72 6.23z"/><path class="st4" d="M238.67 160.94v.3l-92.05 53.15v-.3zM146.98 214.34l.02 8.73-.35.2v.31l.35-.2.02 7.84-.35.2v.31l.35-.2.03 8.36-.35.21v.3l.35-.2.02 7.85-.35.2v.3l.35-.21.03 9.5 92.08-53.16v.4l-92.43 53.37-.13-43.91z"/></g><path d="M248.34 123.89l-113.7 65.13a7.953 7.953 0 0 0-4.01 6.9l-.18 102.26 3.71-2.12c22.11-32.68 105.42-155.84 116.35-172.66-.72-.05-1.47.09-2.17.49z" opacity=".2" fill="#fff9ff"/></svg>