<svg id="OBJECTS" xmlns="http://www.w3.org/2000/svg" viewBox="0 0 500 500"><style>.st1{opacity:.8;fill:#647ddd}.st2{fill:#fccf4f}.st3{fill:#b99255}.st4{fill:#ff85ab}.st5{fill:#ef6c98}.st7{fill:#fff9ff}.st8{fill:#87ceff}.st9{fill:#4ca6f1}.st13{enable-background:new}.st16{fill:#433f6d}.st17{fill:#dbac37}.st18{fill:#806cbe}.st19{fill:#ff6690}</style><path opacity=".5" fill="#647ddd" d="M451.15 263.27l-73.76-42.56-64.97 31.35 87.09 49.9 51.64-29.81V271l-.97-.56.97-.57v-3.44l-1.74-1.01 1.74-1z"/><path class="st1" d="M302.63 370.81c-.6.56-27.36 17.42-27.36 17.42s-34.49-20.11-33.3-19.75c1.19.37 60.66 2.33 60.66 2.33z"/><path class="st2" d="M302.63 370.81l-32.37-18.67-28.29 16.35 28.44 16.42 7.95-.09z"/><path class="st3" d="M274.32 380.23l4.04 4.59-7.95.09z"/><path class="st4" d="M461.15 265.48l-73.76-42.55-51.6 29.81 73.72 42.56z"/><path class="st4" d="M335.79 251.59v1.15l73.72 42.56 51.64-29.82v-1.15z"/><path class="st5" d="M461.15 264.33l-73.76-42.55-51.6 29.81 73.72 42.56z"/><path class="st4" d="M461.15 263.21l-73.76-42.56-51.6 29.81 73.72 42.56z"/><path fill="#ffe5ea" d="M335.79 247.01v3.45l73.72 42.56 51.64-29.81v-3.45z"/><path class="st7" d="M461.15 259.76l-73.76-42.56-51.6 29.81 73.72 42.57z"/><g><path class="st4" d="M461.15 257.75l-73.76-42.55-51.6 29.81 73.72 42.56z"/><path class="st5" d="M335.79 243.86v1.15l73.72 42.56 51.64-29.82v-1.15z"/><path class="st4" d="M461.15 256.6l-73.76-42.55-51.6 29.81 73.72 42.56z"/></g><path class="st5" d="M409.51 286.42v8.88l-73.72-42.56v-8.88z"/><g><path class="st8" d="M466.4 251.04l-73.76-42.56-51.6 29.81 73.72 42.56z"/><path class="st8" d="M341.04 237.14v1.15l73.72 42.56 51.64-29.81v-1.15z"/><path class="st9" d="M466.4 249.89l-73.76-42.56-51.6 29.81 73.72 42.56z"/><path class="st8" d="M466.4 248.76l-73.76-42.56-51.6 29.82 73.72 42.56z"/><path fill="#ffe4e3" d="M341.04 232.57v3.45l73.72 42.56 51.64-29.82v-3.45z"/><path class="st7" d="M466.4 245.31l-73.76-42.55-51.6 29.81 73.72 42.56z"/><g><path class="st8" d="M466.4 243.31l-73.76-42.56-51.6 29.81 73.72 42.56z"/><path class="st9" d="M341.04 229.41v1.15l73.72 42.56 51.64-29.81v-1.15z"/><path class="st8" d="M466.4 242.16l-73.76-42.56-51.6 29.81 73.72 42.56z"/><path fill="#fff2ff" d="M363.25 229.41l29.39-16.99 51.54 29.74-29.42 16.99z"/></g><path class="st9" d="M414.76 271.97v8.88l-73.72-42.56v-8.88z"/></g><g><path d="M143.41 336.88c.03-.07.07-.13.1-.2.14.05.28.1.4.14l.48.17c.29.1.67.24.96.34.29.1.67.24.96.34l.48.17c.15.05.33.12.51.18.15.05 4.36 1.43 4.93 1.65h.01l.03.02c.01 0 .02.01.02.01l54.08 31.39.76 1.07-.76 1.95-1.52.88-54.13-31.42-.03-.04c-1.47-1.28-3.05-2.99-4.52-4.26-.92-.8-1.84-1.6-2.76-2.39z" fill="#647ddd"/><g class="st13"><path d="M144.45 335.73c.14.05.28.1.4.14l.48.17c.29.1.67.24.96.34.29.1.67.24.96.34l.48.17c.15.05.33.12.51.18l-1.13 1.25c-.92-.8-1.84-1.59-2.76-2.39.04-.06.07-.13.1-.2z" fill="#342646"/><path d="M148.24 337.07c.16.05 4.79 1.57 4.99 1.68-.1.18-.18.2-.49.38-.75.42-1.45 1.37-1.46 2.23 0 .38.22 1.11.41 1.27-1.49-1.29-3.09-3.02-4.58-4.31-.15-.39.78-1.3 1.13-1.25z" fill="#ffe2d7"/><path class="st16" d="M151.28 341.36c-.01.86.59 1.23 1.33.81.75-.42 1.36-1.45 1.37-2.32.01-.86-.58-1.23-1.33-.81-.75.42-1.36 1.46-1.37 2.32z"/></g><g class="st13"><path class="st17" d="M205.03 372.97l-54.13-31.42.76 1.08 54.13 31.42zM205.78 371.02l-54.13-31.42-.75 1.95 54.13 31.42z"/><path class="st2" d="M207.3 370.14l-54.13-31.42-1.52.88 54.13 31.42z"/><path class="st16" d="M205.78 371.02l-.75 1.95.76 1.08 1.52-.88.76-1.95-.77-1.08z"/></g></g><g><path class="st1" d="M128.91 418.78L33.6 366.21l62.06-12.46 100.37 26.27z"/><path class="st18" d="M125.29 353.58c.82-.47 1.99-.43 2.77.02.77.45.83 1.12.02 1.59-.81.47-1.98.44-2.76-.02-.77-.44-.86-1.11-.03-1.59zm1.98.47c-.43-.25-.95-.27-1.28-.08-.34.2-.31.51.11.75.43.25.96.27 1.29.07.33-.18.3-.49-.12-.74"/><g class="st13"><path class="st7" d="M126.1 354.73c.43.25.96.27 1.29.07.32-.19.29-.5-.13-.75-.43-.25-.95-.27-1.28-.08-.33.2-.3.51.12.76z"/><path class="st18" d="M122.19 355.43l-.85.49 9.26.96.84-.48z"/><path class="st7" d="M126.73 357.6c-.43-.25-.95-.28-1.31-.07-.32.19-.29.5.13.75.43.25.94.27 1.28.07.35-.2.32-.5-.1-.75z"/><path class="st18" d="M119.59 359.83l-1.57.91c2.19 1.27 5.12 1.98 8.23 1.98 3.12 0 6.04-.7 8.26-1.98 2.21-1.28 3.44-2.97 3.44-4.78.02-1.81-1.19-3.5-3.39-4.78-2.19-1.27-5.12-1.98-8.23-1.98-3.11 0-6.04.7-8.26 1.98l1.56.91c1.79-1.03 4.16-1.6 6.69-1.6 2.52 0 4.89.57 6.67 1.6s2.75 2.41 2.74 3.87c-.01 1.46-1 2.84-2.79 3.87-1.79 1.03-4.16 1.6-6.69 1.6-2.52 0-4.89-.57-6.66-1.6zM43.3 363.56l4.08 2.37 57.45-33.17-4.07-2.37z"/><path class="st7" d="M106.76 365.9c.43.25.95.27 1.29.08.33-.19.3-.5-.12-.75-.43-.25-.95-.27-1.28-.08-.35.19-.31.5.11.75z"/><path class="st7" d="M100.17 371.04c-1.84-1.07-2.81-2.49-2.74-4.01.07-1.41 1.06-2.73 2.79-3.73 1.79-1.03 4.16-1.6 6.69-1.6 2.52 0 4.89.57 6.67 1.6 1.78 1.03 2.75 2.41 2.74 3.87-.01 1.46-1 2.84-2.79 3.87-1.79 1.03-4.16 1.6-6.69 1.6-2.53 0-4.89-.57-6.67-1.6z"/><path class="st7" d="M107.39 368.77c-.43-.25-.95-.28-1.31-.07-.33.19-.29.5.13.75.43.25.94.27 1.28.07.35-.2.32-.51-.1-.75z"/><path class="st18" d="M54.89 370.3l1.89 1.09 57.45-33.17-1.89-1.1zM58.96 372.66l1.9 1.11 57.46-33.18-1.9-1.1zM98.65 362.4l1.56.91c-1.73 1-2.71 2.32-2.79 3.73-.07 1.51.9 2.94 2.74 4.01-1.84-1.07-2.81-2.49-2.74-4.01.07-1.41 1.06-2.73 2.79-3.73 1.79-1.03 4.16-1.6 6.69-1.6 2.52 0 4.89.57 6.67 1.6 1.78 1.03 2.75 2.41 2.74 3.87-.01 1.46-1 2.84-2.79 3.87l1.56.91c-2.21 1.28-5.14 1.98-8.26 1.98s-6.05-.7-8.24-1.98c2.19 1.27 5.12 1.98 8.24 1.98s6.04-.7 8.26-1.98c2.21-1.27 3.44-2.97 3.44-4.78.01-1.8-1.19-3.5-3.39-4.78-2.19-1.27-5.12-1.98-8.23-1.98s-6.04.7-8.25 1.98z"/><path class="st8" d="M98.65 362.4c-2.13 1.23-3.35 2.87-3.44 4.6-.09 1.87 1.11 3.63 3.38 4.95 2.19 1.27 5.12 1.98 8.24 1.98s6.04-.7 8.26-1.98l-1.56-.91c-1.79 1.03-4.16 1.6-6.69 1.6-2.53 0-4.89-.57-6.67-1.6-1.84-1.07-2.81-2.49-2.74-4.01.07-1.41 1.06-2.73 2.79-3.73l-1.57-.9z"/><path class="st18" d="M63.05 375.04l1.89 1.09 57.45-33.17-1.89-1.1z"/><path class="st7" d="M87.41 377.06c.43.25.95.27 1.29.08.33-.19.29-.5-.13-.75-.43-.25-.95-.27-1.28-.08-.34.2-.3.51.12.75z"/><path class="st7" d="M80.75 382.25c-1.84-1.07-2.81-2.49-2.74-4.01.07-1.41 1.06-2.73 2.79-3.73 1.79-1.03 4.16-1.6 6.69-1.6 2.52 0 4.89.57 6.67 1.6 1.78 1.03 2.75 2.41 2.74 3.87-.01 1.46-1 2.84-2.79 3.87-1.79 1.03-4.17 1.6-6.69 1.6-2.52 0-4.89-.57-6.67-1.6z"/><path class="st7" d="M88.04 379.94c-.43-.25-.95-.28-1.3-.08-.33.19-.3.5.13.75s.94.27 1.29.07c.33-.19.3-.49-.12-.74z"/><path class="st8" d="M159.18 370.43l18.93 11 5.33-3.07-18.93-11z"/><path class="st18" d="M79.24 373.61l1.56.91c-1.73 1-2.71 2.32-2.79 3.73-.07 1.51.9 2.94 2.74 4.01-1.84-1.07-2.81-2.49-2.74-4.01.07-1.41 1.06-2.73 2.79-3.73 1.79-1.03 4.16-1.6 6.69-1.6 2.52 0 4.89.57 6.67 1.6l1.57-.91c-2.19-1.27-5.12-1.98-8.23-1.98s-6.06.7-8.26 1.98z"/><path class="st19" d="M162.52 379.33l9.59 5.57 5.33-3.08-9.59-5.57z"/><path class="st8" d="M152.85 387.62l7.25 4.21 5.33-3.07-7.25-4.22z"/><path class="st18" d="M97.6 395.11l1.89 1.1 57.45-33.17-1.89-1.1zM102.96 398.23l1.89 1.1 57.46-33.17-1.89-1.1zM113.71 400.98l1.89 1.1 27-15.6-1.89-1.09zM118.22 403.6l1.89 1.1 27-15.59-1.89-1.1zM122.72 406.22l1.89 1.1 27.01-15.6-1.89-1.09zM126.59 408.46l1.89 1.1 27-15.59-1.89-1.1z"/><path class="st7" d="M196.03 380.02l-67.12 38.75-94.42-54.87 67.12-38.75 94.42 54.87zm-80.89-17.62c-2.19-1.27-5.12-1.98-8.23-1.98-3.11 0-6.05.7-8.26 1.98-2.13 1.23-3.35 2.87-3.44 4.6-.09 1.87 1.11 3.63 3.38 4.95 2.19 1.27 5.12 1.98 8.24 1.98s6.04-.7 8.26-1.98c2.21-1.27 3.44-2.97 3.44-4.78.01-1.8-1.19-3.49-3.39-4.77m-19.41 11.21c-2.19-1.27-5.12-1.98-8.23-1.98-3.11 0-6.05.7-8.26 1.98-2.14 1.23-3.35 2.87-3.44 4.6-.09 1.87 1.11 3.63 3.38 4.95 2.2 1.28 5.12 1.98 8.24 1.98s6.04-.7 8.26-1.98c2.21-1.27 3.44-2.97 3.44-4.78.01-1.8-1.19-3.5-3.39-4.77m38.83-22.42c-2.19-1.27-5.12-1.98-8.23-1.98-3.11 0-6.04.7-8.26 1.98-2.13 1.23-3.35 2.87-3.44 4.6-.09 1.87 1.11 3.63 3.39 4.95 2.19 1.27 5.12 1.98 8.23 1.98 3.12 0 6.04-.7 8.26-1.98 2.21-1.28 3.44-2.97 3.44-4.78.01-1.8-1.19-3.49-3.39-4.77m-87.18 14.74l57.46-33.17-4.08-2.37-57.46 33.17 4.08 2.37m13.48 7.84l57.46-33.17-1.9-1.1-57.46 33.17 1.9 1.1m-8.16-4.75l57.46-33.17-1.89-1.1-57.46 33.17 1.89 1.1m4.08 2.37l57.46-33.17-1.89-1.1-57.46 33.18 1.89 1.09m8.16 4.74l57.46-33.17-1.89-1.1-57.46 33.17 1.89 1.1m39.91 23.2l57.46-33.17-1.89-1.1-57.46 33.17 1.89 1.1m-5.36-3.12l57.46-33.17-1.89-1.1-57.46 33.17 1.89 1.1m-5.8-3.36l57.46-33.17-1.89-1.1-57.46 33.17 1.89 1.1m84.42-11.42l5.33-3.08-18.93-11-5.33 3.08 18.93 11m-12.01 6.94l5.33-3.08-14.26-8.28-5.33 3.08 14.26 8.28m6.01-3.47l5.33-3.08-9.59-5.57-5.33 3.08 9.59 5.57m-52 19.8l27.01-15.59-1.89-1.1-27.01 15.59 1.89 1.1m-4.51-2.62l27.01-15.59-1.89-1.1-27.01 15.59 1.89 1.1m9.01 5.24l27.01-15.59-1.89-1.1-27.01 15.59 1.89 1.1m3.87 2.24l27.01-15.59-1.89-1.1-27.01 15.59 1.89 1.1m31.62-17.73l5.33-3.08-7.25-4.21-5.33 3.08 7.25 4.21"/><path class="st19" d="M118.07 351.19c-2.13 1.23-3.35 2.87-3.44 4.6-.09 1.87 1.11 3.63 3.39 4.95l1.57-.91c-1.84-1.07-2.81-2.49-2.74-4.01.07-1.41 1.06-2.73 2.78-3.73l-1.56-.9z"/><path class="st7" d="M135.73 355.96c0-1.46-.97-2.84-2.74-3.87-1.78-1.03-4.15-1.6-6.67-1.6-2.52 0-4.9.57-6.69 1.6-1.72.99-2.71 2.32-2.78 3.73-.07 1.52.9 2.94 2.74 4.01 1.78 1.03 4.15 1.6 6.67 1.6 2.52 0 4.9-.57 6.69-1.6 1.78-1.03 2.76-2.41 2.78-3.87z"/><path class="st18" d="M50.81 367.93l1.89 1.09 57.46-33.17-1.89-1.1z"/><path class="st8" d="M79.24 373.61c-2.14 1.23-3.35 2.87-3.44 4.6-.09 1.87 1.11 3.63 3.38 4.95 2.2 1.28 5.12 1.98 8.24 1.98s6.04-.7 8.26-1.98c2.21-1.27 3.44-2.97 3.44-4.78.01-1.8-1.19-3.5-3.39-4.78l-1.57.91c1.78 1.03 2.75 2.41 2.74 3.87-.01 1.46-1 2.84-2.79 3.87-1.79 1.03-4.17 1.6-6.69 1.6-2.53 0-4.89-.57-6.67-1.6-1.84-1.07-2.81-2.49-2.74-4.01.07-1.41 1.06-2.73 2.79-3.73l-1.56-.9zM151.85 380.08l14.25 8.29 5.33-3.08-14.26-8.28z"/><path class="st18" d="M91.8 391.75l1.89 1.1 57.46-33.18-1.89-1.09z"/></g></g><g><path class="st1" d="M421.63 224.81c-.6.56-27.36 17.42-27.36 17.42s-34.49-20.11-33.3-19.75c1.19.37 60.66 2.33 60.66 2.33z"/><path class="st2" d="M421.63 224.81l-32.37-18.67-28.29 16.35 28.44 16.42 7.95-.09z"/><path class="st3" d="M393.32 234.23l4.04 4.59-7.95.09z"/></g><g><path class="st1" d="M163.63 415.81c-.6.56-27.36 17.42-27.36 17.42s-34.49-20.11-33.3-19.75c1.19.37 60.66 2.33 60.66 2.33z"/><path class="st2" d="M163.63 415.81l-32.37-18.67-28.29 16.35 28.44 16.42 7.95-.09z"/><path class="st3" d="M135.32 425.23l4.04 4.59-7.95.09z"/></g></svg>