<svg id="OBJECTS" xmlns="http://www.w3.org/2000/svg" viewBox="0 0 500 500"><style>.st3{fill:#fff2ff}</style><path d="M414.25 339.15c.05-.19.05-.38 0-.56-.2-.74-1.11-1.26-1.11-1.26s-54.16-31.28-56.73-32.77c-2.58-1.49-5.16 0-5.16 0l-25.79 14.89c-.97.56-1.21 1.12-1.13 1.61v2.64c-.13.95 1.13 1.68 1.13 1.68s54.16 31.28 56.74 32.76c.82.47 1.63.64 2.36.66 1.59.04 2.8-.66 2.8-.66l23.21-13.4 2.58-1.49c.68-.39 1-.79 1.1-1.16.05-.19.05-.38 0-.56v-2.38z" opacity=".5" fill="#647ddd"/><path d="M419.8 342.1c.05-.2.05-.38 0-.56v-2.95l-6.13-1.22c-13.49-7.79-49.62-28.66-51.71-29.87-2.58-1.49-5.16 0-5.16 0s-17.78 10.27-23.95 13.83l-2.97-.59v2.95c-.13.95 1.13 1.68 1.13 1.68s54.16 31.28 56.74 32.76c.82.47 1.63.64 2.36.66 1.59.04 2.8-.66 2.8-.66l23.21-13.4 2.58-1.49c.69-.38 1-.77 1.1-1.14z" fill="#57438e"/><path d="M416.12 341.79l-23.21 13.4s-2.58 1.48-5.16 0-56.74-32.76-56.74-32.76-2.58-1.49 0-2.98l25.79-14.89s2.58-1.49 5.16 0l56.73 32.77s2.59 1.49.01 2.97l-2.58 1.49z" fill="#381e60"/><path class="st3" d="M408.36 334.37l-46.4-26.82-25.8 14.89 46.46 26.79zM408.03 339.25l-.44-.25c-.65-.37-1.45-.37-2.1 0l-13.23 7.63a.807.807 0 0 0 0 1.4l.16.09c.75.43 1.67.43 2.42 0l13.18-7.61c.5-.28.5-.98.01-1.26z"/><ellipse class="st3" cx="346.48" cy="313.3" rx="1.29" ry=".54"/></svg>